<svg width="19" height="19" viewBox="0 0 19 19" fill="none" xmlns="http://www.w3.org/2000/svg">
<path d="M17.9086 11.578H16.422V13.0646H17.9086V11.578ZM17.9086 14.5513H16.422V16.0379H17.9086V14.5513ZM17.9086 8.60473H16.422V10.0914H17.9086V8.60473ZM11.9621 2.6582H10.4754V4.14483H11.9621V2.6582ZM17.9086 5.63146H16.422V7.1181H17.9086V5.63146ZM1.55566 16.0379H8.98882V11.578H1.55566V16.0379ZM3.04229 5.63146H1.55566V7.1181H3.04229V5.63146ZM11.9621 14.5513H10.4754V16.0379H11.9621V14.5513ZM14.9353 2.6582H13.4487V4.14483H14.9353V2.6582ZM17.9086 2.6582H16.422V4.14483H17.9086V2.6582ZM14.9353 14.5513H13.4487V16.0379H14.9353V14.5513ZM3.04229 8.60473H1.55566V10.0914H3.04229V8.60473ZM8.98882 2.6582H7.50219V4.14483H8.98882V2.6582ZM6.01556 2.6582H4.52893V4.14483H6.01556V2.6582ZM3.04229 2.6582H1.55566V4.14483H3.04229V2.6582Z" fill="#0E4734"/>
</svg>
