<svg width="20" height="19" viewBox="0 0 20 19" fill="none" xmlns="http://www.w3.org/2000/svg">
<path d="M19.1007 6.44524V3.53814C19.1007 3.05644 18.7102 2.66602 18.2285 2.66602H1.94879C1.46708 2.66602 1.07666 3.05644 1.07666 3.53814V6.44524H19.1007Z" fill="#40864B" fill-opacity="0.4"/>
<path d="M1.07666 9.06152V15.1664C1.07666 15.6481 1.46708 16.0386 1.94879 16.0386H18.2285C18.7102 16.0386 19.1007 15.6481 19.1007 15.1664V9.06152H1.07666ZM7.76298 13.1315H3.69305C3.53258 13.1315 3.40234 13.0012 3.40234 12.8408C3.40234 12.6803 3.53258 12.55 3.69305 12.55H7.76298C7.92346 12.55 8.05369 12.6803 8.05369 12.8408C8.05369 13.0012 7.92346 13.1315 7.76298 13.1315ZM16.4843 13.1315H15.3214C15.161 13.1315 15.0307 13.0012 15.0307 12.8408C15.0307 12.6803 15.161 12.55 15.3214 12.55H16.4843C16.6447 12.55 16.775 12.6803 16.775 12.8408C16.775 13.0012 16.6447 13.1315 16.4843 13.1315Z" fill="#40864B"/>
</svg>
