<svg width="20" height="20" viewBox="0 0 20 20" fill="none" xmlns="http://www.w3.org/2000/svg">
<path d="M18.7104 0.794922H10.3079C10.142 0.794922 10.0078 0.943433 10.0078 1.12716V9.7654C10.0078 9.89331 10.0741 10.0093 10.1777 10.0647C10.2194 10.087 10.2638 10.0976 10.3079 10.0976C10.3748 10.0976 10.4411 10.073 10.4955 10.0249L13.4141 7.43972H18.7104C18.8763 7.43972 19.0104 7.29121 19.0104 7.10748V1.12716C19.0104 0.943433 18.8763 0.794922 18.7104 0.794922Z" fill="#40864B" fill-opacity="0.4"/>
<path d="M5.50645 12.0907C6.99806 12.0907 8.20724 10.7519 8.20724 9.10051C8.20724 7.44909 6.99806 6.11035 5.50645 6.11035C4.01485 6.11035 2.80566 7.44909 2.80566 9.10051C2.80566 10.7519 4.01485 12.0907 5.50645 12.0907Z" fill="#40864B"/>
<path d="M9.28438 14.1356C8.52035 13.809 7.24468 13.4199 5.50627 13.4199C3.76787 13.4199 2.49219 13.809 1.72817 14.1356C0.93654 14.4738 0.404785 15.3426 0.404785 16.2978V19.068C0.404785 19.2517 0.538924 19.4002 0.704873 19.4002H10.3077C10.4736 19.4002 10.6078 19.2517 10.6078 19.068V16.2978C10.6078 15.3426 10.076 14.4738 9.28438 14.1356Z" fill="#40864B"/>
</svg>
