<svg width="42" height="40" viewBox="0 0 42 40" fill="none" xmlns="http://www.w3.org/2000/svg">
<path d="M33.1913 7.80708H0.815157C0.616045 7.80708 0.425089 7.88618 0.284296 8.02697C0.143503 8.16776 0.0644062 8.35872 0.0644062 8.55783V38.8225C0.0644062 39.0216 0.143503 39.2125 0.284296 39.3533C0.425089 39.4941 0.616045 39.5732 0.815157 39.5732H33.1913C33.3904 39.5732 33.5814 39.4941 33.7221 39.3533C33.8629 39.2125 33.942 39.0216 33.942 38.8225V8.55783C33.942 8.35872 33.8629 8.16776 33.7221 8.02697C33.5814 7.88618 33.3904 7.80708 33.1913 7.80708ZM5.08505 9.30858H7.80652V16.253H5.08505V9.30858ZM1.56591 9.30858H3.58355V17.0038C3.58355 17.2029 3.66265 17.3938 3.80344 17.5346C3.94423 17.6754 4.13519 17.7545 4.3343 17.7545H8.55727C8.75639 17.7545 8.94734 17.6754 9.08813 17.5346C9.22893 17.3938 9.30802 17.2029 9.30802 17.0038V9.30858H11.3257V38.0717H1.56591V9.30858ZM32.4405 38.0717H12.8272V9.30858H32.4405V38.0717Z" fill="#116347" stroke="#116347" stroke-width="0.0938438"/>
<path d="M29.6719 35.2563H29.625V35.3032V36.7109V36.7578H29.6719H31.0795H31.1265V36.7109V35.3032V35.2563H31.0795H29.6719Z" fill="#116347" stroke="#116347" stroke-width="0.0938438"/>
<path d="M26.8569 35.2563H26.81V35.3032V36.7109V36.7578H26.8569H28.2646H28.3115V36.7109V35.3032V35.2563H28.2646H26.8569Z" fill="#116347" stroke="#116347" stroke-width="0.0938438"/>
<path d="M24.0415 35.2563H23.9946V35.3032V36.7109V36.7578H24.0415H25.4492H25.4961V36.7109V35.3032V35.2563H25.4492H24.0415Z" fill="#116347" stroke="#116347" stroke-width="0.0938438"/>
<path d="M19.1149 16.3466H26.1532C26.7256 16.3466 27.2746 16.1192 27.6794 15.7144C28.0842 15.3096 28.3116 14.7606 28.3116 14.1881C28.3116 13.6157 28.0842 13.0667 27.6794 12.6619C27.2746 12.2571 26.7256 12.0297 26.1532 12.0297H19.1149C18.5425 12.0297 17.9935 12.2571 17.5887 12.6619C17.1839 13.0667 16.9565 13.6157 16.9565 14.1881C16.9565 14.7606 17.1839 15.3096 17.5887 15.7144C17.9935 16.1192 18.5425 16.3466 19.1149 16.3466ZM19.1149 13.5312H26.1532C26.3274 13.5312 26.4945 13.6004 26.6177 13.7236C26.7409 13.8468 26.8101 14.0139 26.8101 14.1881C26.8101 14.3624 26.7409 14.5295 26.6177 14.6527C26.4945 14.7758 26.3274 14.8451 26.1532 14.8451H19.1149C18.9407 14.8451 18.7736 14.7758 18.6504 14.6527C18.5272 14.5295 18.458 14.3624 18.458 14.1881C18.458 14.0139 18.5272 13.8468 18.6504 13.7236C18.7736 13.6004 18.9407 13.5312 19.1149 13.5312Z" fill="#116347" stroke="#116347" stroke-width="0.0938438"/>
<path d="M40.9334 9.30858H40.9803V9.26166V7.854V7.80708H40.9334H35.3027H35.2558V7.854V9.26166V9.30858H35.3027H37.3673V38.0717H35.3027H35.2558V38.1186V39.5263V39.5732H35.3027H40.9334H40.9803V39.5263V38.1186V38.0717H40.9334H38.8688V9.30858H40.9334Z" fill="#116347" stroke="#116347" stroke-width="0.0938438"/>
<path d="M32.4405 0.81543V2.87999H12.8272V0.81543V0.768508H12.7802H11.3726H11.3257V0.81543V2.87999H1.56591V0.81543V0.768508H1.51899H0.111328H0.0644062V0.81543V6.44606V6.49298H0.111328H1.51899H1.56591V6.44606V4.3815H11.3257V6.44606V6.49298H11.3726H12.7802H12.8272V6.44606V4.3815H32.4405V6.44606V6.49298H32.4875H33.8951H33.942V6.44606V0.81543V0.768508H33.8951H32.4875H32.4405V0.81543Z" fill="#116347" stroke="#116347" stroke-width="0.0938438"/>
</svg>
