<svg width="26" height="39" viewBox="0 0 26 39" fill="none" xmlns="http://www.w3.org/2000/svg">
<path fill-rule="evenodd" clip-rule="evenodd" d="M17.5158 31.6265L24.254 19.7444C25.3586 17.7429 25.9422 15.47 25.9422 13.1708C25.9422 5.90873 20.2312 0 13.2121 0C6.19286 0 0.481934 5.90873 0.481934 13.1708C0.481934 15.4975 1.07144 17.7732 2.18581 19.7542L8.90732 31.6265L9.95119 33.4685L12.3601 37.7145C12.5344 38.021 12.8595 38.2099 13.2121 38.2099C13.5646 38.2099 13.8897 38.021 14.064 37.7145L16.4729 33.4685L17.5158 31.6265ZM2.44041 13.1708C2.44041 15.1616 2.94179 17.1054 3.89165 18.7916L11.3417 31.9506L13.2121 35.2468L22.5442 18.7877C23.4843 17.0858 23.9837 15.14 23.9837 13.1708C23.9837 6.98884 19.1511 1.95848 13.2121 1.95848C7.27296 1.95848 2.44041 6.98884 2.44041 13.1708Z" fill="#116347"/>
<path d="M20.0668 12.7302C20.0668 8.9503 16.991 5.87549 13.2121 5.87549C9.43223 5.87549 6.35742 8.9503 6.35742 12.7302C6.35742 16.51 9.43223 19.5849 13.2121 19.5849C16.991 19.5849 20.0668 16.51 20.0668 12.7302ZM8.3159 12.7302C8.3159 10.0304 10.5123 7.83397 13.2121 7.83397C15.9119 7.83397 18.1083 10.0304 18.1083 12.7302C18.1083 15.4299 15.9119 17.6264 13.2121 17.6264C10.5123 17.6264 8.3159 15.4299 8.3159 12.7302Z" fill="#116347"/>
</svg>
