<svg width="104" height="83" viewBox="0 0 104 83" fill="none" xmlns="http://www.w3.org/2000/svg">
<path d="M9.11176 53.9222H17.1302V63.4563H15.3325L14.719 62.2403C13.1495 63.2493 11.4897 63.7538 9.73954 63.7538C6.85746 63.7538 4.61742 62.9733 3.01943 61.4123C1.43096 59.8427 0.636719 57.6349 0.636719 54.789C0.636719 52.0206 1.47852 49.7826 3.16211 48.075C4.85522 46.3588 7.06672 45.5007 9.79661 45.5007C13.3921 45.5007 15.5798 47.1652 16.3598 50.4941L13.706 51.5937V51.1668L13.6632 50.2095C13.4824 48.1311 12.4219 47.0919 10.4815 47.0919C9.05469 47.0919 8.07973 47.6438 7.55658 48.7477C7.03342 49.8516 6.77185 51.9085 6.77185 54.9183C6.77185 57.7298 6.98111 59.6401 7.39963 60.6491C7.82766 61.6581 8.63617 62.1626 9.82515 62.1626C11.2234 62.1626 11.9225 61.4555 11.9225 60.0411V55.6945H9.11176V53.9222Z" fill="#A4A59B"/>
<path d="M29.4134 45.7983L34.8352 63.4563H29.1566L28.0009 59.6271H22.1369L20.8956 63.4563H18.6841L24.4483 45.7983H29.4134ZM22.6933 57.8549H27.473L25.1759 50.0284L22.6933 57.8549Z" fill="#A4A59B"/>
<path d="M51.2561 45.7983V63.4563H46.9329L38.8003 52.2793V63.4563H36.9027V45.7983H40.4839L49.3584 57.8678V45.7983H51.2561Z" fill="#A4A59B"/>
<path d="M63.9958 45.7983L69.4176 63.4563H63.739L62.5833 59.6271H56.7193L55.478 63.4563H53.2665L59.0307 45.7983H63.9958ZM57.2757 57.8549H62.0554L59.7583 50.0284L57.2757 57.8549Z" fill="#A4A59B"/>
<path d="M85.8384 45.7983V63.4563H81.5153L73.3827 52.2793V63.4563H71.4851V45.7983H75.0663L83.9408 57.8678V45.7983H85.8384Z" fill="#A4A59B"/>
<path d="M98.5782 45.7983L104 63.4563H98.3214L97.1657 59.6271H91.3017L90.0604 63.4563H87.8489L93.6131 45.7983H98.5782ZM91.8581 57.8549H96.6378L94.3407 50.0284L91.8581 57.8549Z" fill="#A4A59B"/>
<path d="M1.19714 74.7538V68.3237H3.86338C5.75707 68.3237 6.70391 69.3978 6.70391 71.5458C6.70391 73.6845 5.72252 74.7538 3.75975 74.7538H1.19714ZM3.06257 74.2215H3.55248C4.00156 74.2215 4.31246 74.0283 4.48519 73.6421C4.65791 73.2527 4.74427 72.5508 4.74427 71.5364C4.74427 70.522 4.65791 69.8217 4.48519 69.4354C4.3156 69.0492 4.0047 68.856 3.55248 68.856H3.06257V74.2215ZM12.966 68.3237V68.9691H10.6625V70.9146H12.5985V71.56H10.6625V74.1084H13.357V74.7538H8.79704V68.3237H12.966ZM19.8546 68.3237L17.9891 74.7538H16.3168L14.6116 68.3237H16.4959L17.7677 73.1946L19.1574 68.3237H19.8546ZM25.7822 68.3237V68.9691H23.4786V70.9146H25.4147V71.56H23.4786V74.1084H26.1731V74.7538H21.6132V68.3237H25.7822ZM29.9009 68.3237V74.1084H32.5436V74.7538H28.0354V68.3237H29.9009ZM36.846 68.2107C38.7177 68.2107 39.6535 69.3192 39.6535 71.5364C39.6535 73.7536 38.7004 74.8621 36.7942 74.8621C34.8879 74.8621 33.9348 73.7284 33.9348 71.461C33.9348 69.2941 34.9052 68.2107 36.846 68.2107ZM36.7942 68.7241C36.4424 68.7241 36.2038 68.9188 36.0781 69.3083C35.9557 69.6945 35.8944 70.4372 35.8944 71.5364C35.8944 72.6356 35.9557 73.3798 36.0781 73.7693C36.2038 74.1555 36.4424 74.3487 36.7942 74.3487C37.1459 74.3487 37.383 74.1555 37.5055 73.7693C37.6311 73.3798 37.6939 72.6356 37.6939 71.5364C37.6939 70.4404 37.6311 69.6977 37.5055 69.3083C37.383 68.9188 37.1459 68.7241 36.7942 68.7241ZM41.7561 74.7538V68.3237H44.5307C46.104 68.3237 46.8907 68.9534 46.8907 70.2127C46.8907 71.4846 46.0161 72.1205 44.2669 72.1205H43.6215V74.7538H41.7561ZM43.6215 71.527H44.0408C44.7191 71.527 45.0583 71.0779 45.0583 70.1797C45.0583 69.3381 44.7191 68.9173 44.0408 68.9173H43.6215V71.527ZM52.9596 68.3237V68.9691H50.6561V70.9146H52.5922V71.56H50.6561V74.1084H53.3506V74.7538H48.7907V68.3237H52.9596ZM55.2129 74.7538V68.3237H57.9781C58.6972 68.3237 59.2719 68.476 59.7022 68.7807C60.1324 69.0821 60.3475 69.4873 60.3475 69.996C60.3475 70.7748 59.8859 71.282 58.9626 71.5176C59.4368 71.6934 59.743 71.8866 59.8812 72.097C60.0225 72.3074 60.1183 72.7156 60.1685 73.3217C60.2282 74.044 60.3491 74.5214 60.5313 74.7538H58.5057C58.3769 74.4554 58.3125 74.0833 58.3125 73.6374L58.3031 73.2558L58.2937 72.7753C58.2937 72.0342 57.9954 71.6636 57.3987 71.6636H57.0783V74.7538H55.2129ZM57.0783 71.1313H57.4552C58.1618 71.1313 58.5151 70.7623 58.5151 70.0243C58.5151 69.2863 58.1618 68.9173 57.4552 68.9173H57.0783V71.1313ZM66.7839 70.1232L65.9171 70.2834C65.9548 70.1106 65.9737 69.9662 65.9737 69.85C65.9737 69.1026 65.5199 68.7288 64.6123 68.7288C63.8963 68.7288 63.5383 68.9864 63.5383 69.5014C63.5383 69.8877 63.9387 70.219 64.7395 70.4953C66.2846 71.0261 67.0571 71.8112 67.0571 72.8507C67.0571 73.4599 66.8404 73.9498 66.4071 74.3204C65.9737 74.6878 65.3974 74.8716 64.6782 74.8716C63.086 74.8716 62.2899 74.2545 62.2899 73.0203C62.2899 72.9198 62.2978 72.7957 62.3135 72.6481L63.2132 72.4503C63.1441 72.7235 63.1096 72.9606 63.1096 73.1616C63.1096 73.9593 63.5665 74.3581 64.4804 74.3581C65.2121 74.3581 65.578 74.0707 65.578 73.496C65.578 73.0689 65.1399 72.6937 64.2637 72.3702C62.9981 71.9054 62.3653 71.1627 62.3653 70.142C62.3653 69.5642 62.5757 69.0994 62.9965 68.7477C63.4205 68.3928 63.9764 68.2154 64.6641 68.2154C66.0773 68.2154 66.7839 68.8513 66.7839 70.1232ZM79.3473 68.3237V74.1084H81.99V74.7538H77.4819V68.3237H79.3473ZM84.4835 73.1851C85.0362 73.1851 85.3126 73.4615 85.3126 74.0142C85.3126 74.5669 85.0362 74.8433 84.4835 74.8433C83.9308 74.8433 83.6545 74.5669 83.6545 74.0142C83.6545 73.4615 83.9308 73.1851 84.4835 73.1851ZM92.2106 68.3237V68.9691H90.6325V74.7538H88.6541V68.9691H87.0666V68.3237H92.2106ZM94.7936 73.1851C95.3464 73.1851 95.6227 73.4615 95.6227 74.0142C95.6227 74.5669 95.3464 74.8433 94.7936 74.8433C94.2409 74.8433 93.9646 74.5669 93.9646 74.0142C93.9646 73.4615 94.2409 73.1851 94.7936 73.1851ZM98.0079 74.7538V68.3237H100.674C102.568 68.3237 103.515 69.3978 103.515 71.5458C103.515 73.6845 102.533 74.7538 100.571 74.7538H98.0079ZM99.8733 74.2215H100.363C100.812 74.2215 101.123 74.0283 101.296 73.6421C101.469 73.2527 101.555 72.5508 101.555 71.5364C101.555 70.522 101.469 69.8217 101.296 69.4354C101.126 69.0492 100.815 68.856 100.363 68.856H99.8733V74.2215Z" fill="#A4A59B"/>
<path d="M100.604 42.1049L100.18 42.4232L87.8694 23.109L73.3306 41.2559H49.5592L29.6082 9.94978L6.89796 35.5253H5.73061L29.6082 8.88856L50.0898 40.4069H73.0122L87.8694 22.1539L100.604 42.1049Z" fill="#A4A59B"/>
<path fill-rule="evenodd" clip-rule="evenodd" d="M4.88163 35.4192H0L30.1388 0.504883L47.0122 8.78243L48.8163 12.3906L66.0082 7.61509L76.0898 20.7743L78.9551 16.5294H88.9306L103.469 39.2396L100.922 41.6804L87.8694 21.411L72.8 39.5579H50.6204L29.6082 7.93345L4.88163 35.4192ZM65.5837 11.011L56.4571 21.7294L67.4939 32.4477L75.7714 21.411L65.5837 11.011Z" fill="#A4A59B"/>
<path d="M64.098 19.1824V23.5335H68.2367V19.1824H64.098Z" fill="#A4A59B"/>
<path d="M90.2041 34.3579H87.4449V30.6437H90.2041V34.3579Z" fill="#A4A59B"/>
<path d="M90.2041 38.6028H87.4449V34.8885H90.2041V38.6028Z" fill="#A4A59B"/>
<path d="M84.1551 38.6028H86.9143V34.8885H84.1551V38.6028Z" fill="#A4A59B"/>
<path d="M84.1551 34.3579H86.9143V30.6437H84.1551V34.3579Z" fill="#A4A59B"/>
<path d="M22.9224 25.5498H26.7429V21.411H22.8163L22.9224 25.5498Z" fill="#A4A59B"/>
<path d="M27.698 25.5498H31.5184V21.411H27.5918L27.698 25.5498Z" fill="#A4A59B"/>
<path d="M23.0286 30.6437H26.849V26.5049H22.9224L23.0286 30.6437Z" fill="#A4A59B"/>
<path d="M27.8041 30.6437H31.6245V26.5049H27.698L27.8041 30.6437Z" fill="#A4A59B"/>
<path d="M9.11176 53.4176H17.1302V62.9516H15.3325L14.719 61.7356C13.1495 62.7446 11.4897 63.2492 9.73954 63.2492C6.85746 63.2492 4.61742 62.4687 3.01943 60.9077C1.43096 59.3381 0.636719 57.1303 0.636719 54.2843C0.636719 51.516 1.47852 49.278 3.16211 47.5704C4.85522 45.8542 7.06672 44.9961 9.79661 44.9961C13.3921 44.9961 15.5798 46.6606 16.3598 49.9895L13.706 51.0891V50.6622L13.6632 49.7049C13.4824 47.6265 12.4219 46.5873 10.4815 46.5873C9.05469 46.5873 8.07973 47.1392 7.55658 48.2431C7.03342 49.347 6.77185 51.4039 6.77185 54.4137C6.77185 57.2252 6.98111 59.1354 7.39963 60.1445C7.82766 61.1535 8.63617 61.658 9.82515 61.658C11.2234 61.658 11.9225 60.9508 11.9225 59.5364V55.1899H9.11176V53.4176Z" fill="#0E4734"/>
<path d="M29.4134 45.2936L34.8352 62.9516H29.1566L28.0009 59.1225H22.1369L20.8956 62.9516H18.6841L24.4483 45.2936H29.4134ZM22.6933 57.3502H27.473L25.1759 49.5238L22.6933 57.3502Z" fill="#0E4734"/>
<path d="M51.2561 45.2936V62.9516H46.9329L38.8003 51.7747V62.9516H36.9027V45.2936H40.4839L49.3584 57.3632V45.2936H51.2561Z" fill="#0E4734"/>
<path d="M63.9958 45.2936L69.4176 62.9516H63.739L62.5833 59.1225H56.7193L55.478 62.9516H53.2665L59.0307 45.2936H63.9958ZM57.2757 57.3502H62.0554L59.7583 49.5238L57.2757 57.3502Z" fill="#0E4734"/>
<path d="M85.8384 45.2936V62.9516H81.5153L73.3827 51.7747V62.9516H71.4851V45.2936H75.0663L83.9408 57.3632V45.2936H85.8384Z" fill="#0E4734"/>
<path d="M98.5782 45.2936L104 62.9516H98.3214L97.1657 59.1225H91.3017L90.0604 62.9516H87.8489L93.6131 45.2936H98.5782ZM91.8581 57.3502H96.6378L94.3407 49.5238L91.8581 57.3502Z" fill="#0E4734"/>
<path d="M1.19714 74.2489V67.8188H3.86338C5.75707 67.8188 6.70391 68.8929 6.70391 71.0409C6.70391 73.1796 5.72252 74.2489 3.75975 74.2489H1.19714ZM3.06257 73.7166H3.55248C4.00156 73.7166 4.31246 73.5235 4.48519 73.1372C4.65791 72.7478 4.74427 72.0459 4.74427 71.0315C4.74427 70.0172 4.65791 69.3168 4.48519 68.9306C4.3156 68.5443 4.0047 68.3511 3.55248 68.3511H3.06257V73.7166ZM12.966 67.8188V68.4642H10.6625V70.4097H12.5985V71.0551H10.6625V73.6035H13.357V74.2489H8.79704V67.8188H12.966ZM19.8546 67.8188L17.9891 74.2489H16.3168L14.6116 67.8188H16.4959L17.7677 72.6897L19.1574 67.8188H19.8546ZM25.7822 67.8188V68.4642H23.4786V70.4097H25.4147V71.0551H23.4786V73.6035H26.1731V74.2489H21.6132V67.8188H25.7822ZM29.9009 67.8188V73.6035H32.5436V74.2489H28.0354V67.8188H29.9009ZM36.846 67.7058C38.7177 67.7058 39.6535 68.8144 39.6535 71.0315C39.6535 73.2487 38.7004 74.3572 36.7942 74.3572C34.8879 74.3572 33.9348 73.2235 33.9348 70.9561C33.9348 68.7892 34.9052 67.7058 36.846 67.7058ZM36.7942 68.2193C36.4424 68.2193 36.2038 68.414 36.0781 68.8034C35.9557 69.1896 35.8944 69.9324 35.8944 71.0315C35.8944 72.1307 35.9557 72.875 36.0781 73.2644C36.2038 73.6506 36.4424 73.8438 36.7942 73.8438C37.1459 73.8438 37.383 73.6506 37.5055 73.2644C37.6311 72.875 37.6939 72.1307 37.6939 71.0315C37.6939 69.9355 37.6311 69.1928 37.5055 68.8034C37.383 68.414 37.1459 68.2193 36.7942 68.2193ZM41.7561 74.2489V67.8188H44.5307C46.104 67.8188 46.8907 68.4485 46.8907 69.7078C46.8907 70.9797 46.0161 71.6156 44.2669 71.6156H43.6215V74.2489H41.7561ZM43.6215 71.0221H44.0408C44.7191 71.0221 45.0583 70.573 45.0583 69.6748C45.0583 68.8332 44.7191 68.4124 44.0408 68.4124H43.6215V71.0221ZM52.9596 67.8188V68.4642H50.6561V70.4097H52.5922V71.0551H50.6561V73.6035H53.3506V74.2489H48.7907V67.8188H52.9596ZM55.2129 74.2489V67.8188H57.9781C58.6972 67.8188 59.2719 67.9712 59.7022 68.2758C60.1324 68.5773 60.3475 68.9824 60.3475 69.4911C60.3475 70.27 59.8859 70.7771 58.9626 71.0127C59.4368 71.1885 59.743 71.3817 59.8812 71.5921C60.0225 71.8025 60.1183 72.2108 60.1685 72.8169C60.2282 73.5392 60.3491 74.0165 60.5313 74.2489H58.5057C58.3769 73.9506 58.3125 73.5784 58.3125 73.1325L58.3031 72.7509L58.2937 72.2704C58.2937 71.5293 57.9954 71.1587 57.3987 71.1587H57.0783V74.2489H55.2129ZM57.0783 70.6264H57.4552C58.1618 70.6264 58.5151 70.2574 58.5151 69.5194C58.5151 68.7814 58.1618 68.4124 57.4552 68.4124H57.0783V70.6264ZM66.7839 69.6183L65.9171 69.7785C65.9548 69.6058 65.9737 69.4613 65.9737 69.3451C65.9737 68.5977 65.5199 68.224 64.6123 68.224C63.8963 68.224 63.5383 68.4815 63.5383 68.9965C63.5383 69.3828 63.9387 69.7141 64.7395 69.9905C66.2846 70.5212 67.0571 71.3063 67.0571 72.3458C67.0571 72.955 66.8404 73.4449 66.4071 73.8155C65.9737 74.183 65.3974 74.3667 64.6782 74.3667C63.086 74.3667 62.2899 73.7496 62.2899 72.5154C62.2899 72.4149 62.2978 72.2908 62.3135 72.1432L63.2132 71.9454C63.1441 72.2186 63.1096 72.4557 63.1096 72.6567C63.1096 73.4544 63.5665 73.8532 64.4804 73.8532C65.2121 73.8532 65.578 73.5659 65.578 72.9912C65.578 72.5641 65.1399 72.1888 64.2637 71.8653C62.9981 71.4005 62.3653 70.6578 62.3653 69.6372C62.3653 69.0593 62.5757 68.5945 62.9965 68.2428C63.4205 67.8879 63.9764 67.7105 64.6641 67.7105C66.0773 67.7105 66.7839 68.3464 66.7839 69.6183ZM79.3473 67.8188V73.6035H81.99V74.2489H77.4819V67.8188H79.3473ZM84.4835 72.6802C85.0362 72.6802 85.3126 72.9566 85.3126 73.5093C85.3126 74.062 85.0362 74.3384 84.4835 74.3384C83.9308 74.3384 83.6545 74.062 83.6545 73.5093C83.6545 72.9566 83.9308 72.6802 84.4835 72.6802ZM92.2106 67.8188V68.4642H90.6325V74.2489H88.6541V68.4642H87.0666V67.8188H92.2106ZM94.7936 72.6802C95.3464 72.6802 95.6227 72.9566 95.6227 73.5093C95.6227 74.062 95.3464 74.3384 94.7936 74.3384C94.2409 74.3384 93.9646 74.062 93.9646 73.5093C93.9646 72.9566 94.2409 72.6802 94.7936 72.6802ZM98.0079 74.2489V67.8188H100.674C102.568 67.8188 103.515 68.8929 103.515 71.0409C103.515 73.1796 102.533 74.2489 100.571 74.2489H98.0079ZM99.8733 73.7166H100.363C100.812 73.7166 101.123 73.5235 101.296 73.1372C101.469 72.7478 101.555 72.0459 101.555 71.0315C101.555 70.0172 101.469 69.3168 101.296 68.9306C101.126 68.5443 100.815 68.3511 100.363 68.3511H99.8733V73.7166Z" fill="#0E4734"/>
<path d="M100.604 41.6L100.18 41.9184L87.8694 22.6041L73.3306 40.751H49.5592L29.6082 9.4449L6.89796 35.0204H5.73061L29.6082 8.38367L50.0898 39.902H73.0122L87.8694 21.649L100.604 41.6Z" fill="#0E4734"/>
<path fill-rule="evenodd" clip-rule="evenodd" d="M4.88163 34.9143H0L30.1388 0L47.0122 8.27755L48.8163 11.8857L66.0082 7.1102L76.0898 20.2694L78.9551 16.0245H88.9306L103.469 38.7347L100.922 41.1755L87.8694 20.9061L72.8 39.0531H50.6204L29.6082 7.42857L4.88163 34.9143ZM65.5837 10.5061L56.4571 21.2245L67.4939 31.9429L75.7714 20.9061L65.5837 10.5061Z" fill="#0E4734"/>
<path d="M64.098 18.6775V23.0286H68.2367V18.6775H64.098Z" fill="#0E4734"/>
<path d="M90.2041 33.8531H87.4449V30.1388H90.2041V33.8531Z" fill="#0E4734"/>
<path d="M90.2041 38.098H87.4449V34.3837H90.2041V38.098Z" fill="#0E4734"/>
<path d="M84.1551 38.098H86.9143V34.3837H84.1551V38.098Z" fill="#0E4734"/>
<path d="M84.1551 33.8531H86.9143V30.1388H84.1551V33.8531Z" fill="#0E4734"/>
<path d="M22.9224 25.0449H26.7429V20.9061H22.8163L22.9224 25.0449Z" fill="#0E4734"/>
<path d="M27.698 25.0449H31.5184V20.9061H27.5918L27.698 25.0449Z" fill="#0E4734"/>
<path d="M23.0286 30.1388H26.849V26H22.9224L23.0286 30.1388Z" fill="#0E4734"/>
<path d="M27.8041 30.1388H31.6245V26H27.698L27.8041 30.1388Z" fill="#0E4734"/>
<line y1="81.2993" x2="103.739" y2="81.2993" stroke="#0E4734" stroke-width="2.20722"/>
</svg>
