<svg width="10" height="11" viewBox="0 0 10 11" fill="none" xmlns="http://www.w3.org/2000/svg">
<path d="M0.704405 6.05989H4.1274V9.48289C4.1274 9.8308 4.41359 10.1226 4.76711 10.1226C5.12063 10.1226 5.40682 9.8308 5.40682 9.48289V6.05989H8.82981C9.17772 6.05989 9.46952 5.77371 9.46952 5.42019C9.46952 5.06666 9.17772 4.78048 8.82981 4.78048H5.40682V1.35748C5.40682 1.00957 5.12063 0.717773 4.76711 0.717773C4.41359 0.717773 4.1274 1.00957 4.1274 1.35748V4.78048H0.704405C0.356494 4.78048 0.0646973 5.06666 0.0646973 5.42019C0.0646973 5.77371 0.356494 6.05989 0.704405 6.05989Z" fill="black"/>
</svg>
