<svg width="18" height="19" viewBox="0 0 18 19" fill="none" xmlns="http://www.w3.org/2000/svg">
<path d="M8.36336 2.813C7.0195 2.51533 5.61584 2.65196 4.3546 3.20319C3.09337 3.75442 2.03968 4.6918 1.34534 5.88027C1.31296 5.93572 1.29984 6.00034 1.30805 6.06402C1.31625 6.12771 1.34531 6.18689 1.39069 6.23232L3.2803 8.12194C4.61962 6.04356 6.34514 4.24135 8.36336 2.813V2.813Z" fill="#40864B" fill-opacity="0.4"/>
<path d="M15.5409 9.99023C15.8385 11.3341 15.7019 12.7378 15.1507 13.999C14.5994 15.2602 13.6621 16.3139 12.4736 17.0083C12.4181 17.0406 12.3535 17.0538 12.2898 17.0456C12.2262 17.0373 12.167 17.0083 12.1215 16.9629L10.2319 15.0733C12.3103 13.734 14.1125 12.0085 15.5409 9.99023V9.99023Z" fill="#40864B" fill-opacity="0.4"/>
<path d="M4.33421 14.0198C3.95224 13.6388 3.43473 13.4248 2.8952 13.4248C2.35567 13.4248 1.83816 13.6388 1.45619 14.0198C0.519228 14.9565 0.288986 17.6467 0.278811 17.7607C0.275509 17.8008 0.28058 17.8412 0.293704 17.8793C0.306828 17.9173 0.327717 17.9523 0.355048 17.9818C0.38238 18.0114 0.415557 18.035 0.452476 18.0511C0.489396 18.0671 0.529253 18.0754 0.569521 18.0752C0.57737 18.0752 0.58551 18.0752 0.593359 18.0752C0.707317 18.0659 3.39755 17.8357 4.33421 16.8987C4.71551 16.5167 4.92967 15.999 4.92967 15.4593C4.92967 14.9195 4.71551 14.4018 4.33421 14.0198V14.0198Z" fill="#40864B"/>
<path d="M16.2727 6.91151C17.1237 5.02858 17.6151 3.00306 17.7213 0.939455C17.7236 0.898702 17.7173 0.857914 17.7029 0.819747C17.6884 0.78158 17.666 0.74689 17.6373 0.717934C17.6083 0.68896 17.5736 0.666362 17.5354 0.651592C17.4972 0.636823 17.4564 0.630208 17.4155 0.632174C15.3459 0.728438 13.3131 1.21387 11.4233 2.06305L16.2727 6.91151Z" fill="#40864B"/>
<path d="M10.8689 2.33008C5.13317 5.20084 2.86447 10.6595 2.8354 10.7316C2.81416 10.7845 2.80893 10.8424 2.82036 10.8982C2.83178 10.954 2.85935 11.0053 2.89965 11.0456L7.30739 15.4536C7.34788 15.4941 7.39945 15.5218 7.45562 15.5331C7.51179 15.5445 7.57006 15.5389 7.6231 15.5173C7.69491 15.4882 13.1271 13.193 16.0046 7.46459L10.8689 2.33008ZM9.87232 10.2252C9.52734 10.2252 9.19011 10.1229 8.90326 9.93121C8.61642 9.73955 8.39286 9.46714 8.26084 9.14841C8.12882 8.82969 8.09428 8.47898 8.16158 8.14063C8.22888 7.80227 8.39501 7.49148 8.63895 7.24754C8.88288 7.0036 9.19368 6.83747 9.53203 6.77017C9.87039 6.70287 10.2211 6.73741 10.5398 6.86943C10.8585 7.00145 11.131 7.22501 11.3226 7.51186C11.5143 7.7987 11.6166 8.13593 11.6166 8.48092C11.6166 8.94352 11.4328 9.38718 11.1057 9.71429C10.7786 10.0414 10.3349 10.2252 9.87232 10.2252Z" fill="#40864B"/>
</svg>
