<svg width="105" height="84" viewBox="0 0 105 84" fill="none" xmlns="http://www.w3.org/2000/svg">
<path d="M9.17149 54.1323H17.2418V63.728H15.4325L14.815 62.5041C13.2354 63.5197 11.5648 64.0274 9.80333 64.0274C6.90259 64.0274 4.64806 63.2419 3.03973 61.6708C1.44098 60.0911 0.641602 57.869 0.641602 55.0046C0.641602 52.2183 1.48885 49.9659 3.18334 48.2472C4.8874 46.5199 7.11321 45.6562 9.86077 45.6562C13.4795 45.6562 15.6814 47.3315 16.4664 50.682L13.7954 51.7887V51.359L13.7524 50.3955C13.5705 48.3036 12.503 47.2577 10.5501 47.2577C9.11405 47.2577 8.13277 47.8132 7.60624 48.9243C7.0797 50.0353 6.81643 52.1055 6.81643 55.1348C6.81643 57.9645 7.02705 59.8871 7.44828 60.9026C7.87908 61.9182 8.69282 62.426 9.88949 62.426C11.2968 62.426 12.0004 61.7142 12.0004 60.2907V55.916H9.17149V54.1323Z" fill="white"/>
<path d="M29.6046 45.9557L35.0614 63.728H29.3461L28.1829 59.8741H22.2809L21.0316 63.728H18.8058L24.6072 45.9557H29.6046ZM22.841 58.0903H27.6516L25.3396 50.2132L22.841 58.0903Z" fill="white"/>
<path d="M51.5885 45.9557V63.728H47.2374L39.0522 52.4787V63.728H37.1423V45.9557H40.7467L49.6786 58.1033V45.9557H51.5885Z" fill="white"/>
<path d="M64.4107 45.9557L69.8676 63.728H64.1523L62.9891 59.8741H57.0871L55.8378 63.728H53.612L59.4134 45.9557H64.4107ZM57.6471 58.0903H62.4578L60.1458 50.2132L57.6471 58.0903Z" fill="white"/>
<path d="M86.3947 45.9557V63.728H82.0436L73.8583 52.4787V63.728H71.9485V45.9557H75.5528L84.4848 58.1033V45.9557H86.3947Z" fill="white"/>
<path d="M99.2169 45.9557L104.674 63.728H98.9584L97.7953 59.8741H91.8933L90.644 63.728H88.4181L94.2196 45.9557H99.2169ZM92.4533 58.0903H97.2639L94.952 50.2132L92.4533 58.0903Z" fill="white"/>
<path d="M1.20566 75.0273V68.5557H3.88915C5.79509 68.5557 6.74806 69.6367 6.74806 71.7986C6.74806 73.9511 5.76032 75.0273 3.78485 75.0273H1.20566ZM3.08316 74.4916H3.57624C4.02823 74.4916 4.34114 74.2972 4.51498 73.9084C4.68883 73.5165 4.77575 72.8101 4.77575 71.7891C4.77575 70.7682 4.68883 70.0634 4.51498 69.6746C4.3443 69.2858 4.03139 69.0914 3.57624 69.0914H3.08316V74.4916ZM13.0507 68.5557V69.2052H10.7322V71.1633H12.6808V71.8128H10.7322V74.3778H13.4442V75.0273H8.85473V68.5557H13.0507ZM19.9838 68.5557L18.1063 75.0273H16.4232L14.7069 68.5557H16.6034L17.8835 73.458L19.2821 68.5557H19.9838ZM25.9498 68.5557V69.2052H23.6314V71.1633H25.58V71.8128H23.6314V74.3778H26.3433V75.0273H21.7539V68.5557H25.9498ZM30.0951 68.5557V74.3778H32.7549V75.0273H28.2176V68.5557H30.0951ZM37.0852 68.4419C38.969 68.4419 39.9109 69.5576 39.9109 71.7891C39.9109 74.0206 38.9516 75.1364 37.033 75.1364C35.1145 75.1364 34.1552 73.9954 34.1552 71.7133C34.1552 69.5324 35.1318 68.4419 37.0852 68.4419ZM37.033 68.9587C36.679 68.9587 36.4388 69.1546 36.3124 69.5466C36.1891 69.9354 36.1275 70.6829 36.1275 71.7891C36.1275 72.8954 36.1891 73.6445 36.3124 74.0364C36.4388 74.4252 36.679 74.6196 37.033 74.6196C37.387 74.6196 37.6257 74.4252 37.749 74.0364C37.8754 73.6445 37.9386 72.8954 37.9386 71.7891C37.9386 70.686 37.8754 69.9385 37.749 69.5466C37.6257 69.1546 37.387 68.9587 37.033 68.9587ZM42.0271 75.0273V68.5557H44.8196C46.4031 68.5557 47.1949 69.1894 47.1949 70.4569C47.1949 71.737 46.3146 72.377 44.5541 72.377H43.9046V75.0273H42.0271ZM43.9046 71.7797H44.3265C45.0093 71.7797 45.3506 71.3277 45.3506 70.4237C45.3506 69.5766 45.0093 69.1531 44.3265 69.1531H43.9046V71.7797ZM53.3031 68.5557V69.2052H50.9847V71.1633H52.9333V71.8128H50.9847V74.3778H53.6966V75.0273H49.1072V68.5557H53.3031ZM55.571 75.0273V68.5557H58.354C59.0779 68.5557 59.6563 68.709 60.0893 69.0156C60.5223 69.319 60.7388 69.7267 60.7388 70.2388C60.7388 71.0227 60.2742 71.5331 59.3449 71.7702C59.8222 71.9472 60.1304 72.1416 60.2695 72.3533C60.4117 72.5651 60.5081 72.976 60.5587 73.586C60.6187 74.313 60.7404 74.7934 60.9237 75.0273H58.8851C58.7555 74.7271 58.6907 74.3525 58.6907 73.9037L58.6812 73.5197L58.6717 73.0361C58.6717 72.2901 58.3714 71.9172 57.7709 71.9172H57.4485V75.0273H55.571ZM57.4485 71.3814H57.8278C58.539 71.3814 58.8945 71.01 58.8945 70.2672C58.8945 69.5245 58.539 69.1531 57.8278 69.1531H57.4485V71.3814ZM67.2169 70.3668L66.3445 70.528C66.3824 70.3542 66.4014 70.2088 66.4014 70.0918C66.4014 69.3395 65.9446 68.9634 65.0312 68.9634C64.3105 68.9634 63.9502 69.2226 63.9502 69.741C63.9502 70.1297 64.3532 70.4632 65.1592 70.7413C66.7143 71.2755 67.4918 72.0657 67.4918 73.1119C67.4918 73.7251 67.2737 74.2182 66.8376 74.5912C66.4014 74.961 65.8214 75.1459 65.0976 75.1459C63.495 75.1459 62.6938 74.5248 62.6938 73.2826C62.6938 73.1815 62.7017 73.0566 62.7175 72.9081L63.6231 72.7089C63.5535 72.9839 63.5188 73.2225 63.5188 73.4248C63.5188 74.2277 63.9786 74.6291 64.8984 74.6291C65.6349 74.6291 66.0031 74.3399 66.0031 73.7615C66.0031 73.3316 65.5622 72.9539 64.6803 72.6283C63.4065 72.1605 62.7697 71.413 62.7697 70.3858C62.7697 69.8042 62.9814 69.3364 63.405 68.9824C63.8317 68.6252 64.3911 68.4466 65.0833 68.4466C66.5057 68.4466 67.2169 69.0867 67.2169 70.3668ZM79.8616 68.5557V74.3778H82.5213V75.0273H77.9841V68.5557H79.8616ZM85.031 73.4485C85.5873 73.4485 85.8654 73.7267 85.8654 74.283C85.8654 74.8393 85.5873 75.1174 85.031 75.1174C84.4747 75.1174 84.1966 74.8393 84.1966 74.283C84.1966 73.7267 84.4747 73.4485 85.031 73.4485ZM92.8081 68.5557V69.2052H91.2198V75.0273H89.2285V69.2052H87.6308V68.5557H92.8081ZM95.4078 73.4485C95.9641 73.4485 96.2423 73.7267 96.2423 74.283C96.2423 74.8393 95.9641 75.1174 95.4078 75.1174C94.8515 75.1174 94.5734 74.8393 94.5734 74.283C94.5734 73.7267 94.8515 73.4485 95.4078 73.4485ZM98.6429 75.0273V68.5557H101.326C103.232 68.5557 104.185 69.6367 104.185 71.7986C104.185 73.9511 103.198 75.0273 101.222 75.0273H98.6429ZM100.52 74.4916H101.013C101.465 74.4916 101.778 74.2972 101.952 73.9084C102.126 73.5165 102.213 72.8101 102.213 71.7891C102.213 70.7682 102.126 70.0634 101.952 69.6746C101.782 69.2858 101.469 69.0914 101.013 69.0914H100.52V74.4916Z" fill="white"/>
<path d="M101.255 42.2383L100.828 42.5588L88.438 23.1195L73.8051 41.3839H49.8799L29.7998 9.87516L6.9426 35.6162H5.7677L29.7998 8.80707L50.4139 40.5294H73.4847L88.438 22.1582L101.255 42.2383Z" fill="white"/>
<path fill-rule="evenodd" clip-rule="evenodd" d="M4.91322 35.5094H0L30.3338 0.369141L47.3165 8.70026L49.1322 12.3318L66.4353 7.52536L76.5822 20.7697L79.466 16.4973H89.5061L104.139 39.3545L101.576 41.8111L88.438 21.4105L73.2711 39.6749H50.948L29.7998 7.84578L4.91322 35.5094ZM66.0081 10.9432L56.8225 21.731L67.9306 32.5187L76.2618 21.4105L66.0081 10.9432Z" fill="white"/>
<path d="M64.5127 19.1676V23.5467H68.6783V19.1676H64.5127Z" fill="white"/>
<path d="M90.7878 34.4413H88.0108V30.7029H90.7878V34.4413Z" fill="white"/>
<path d="M90.7878 38.7136H88.0108V34.9753H90.7878V38.7136Z" fill="white"/>
<path d="M84.6997 38.7136H87.4767V34.9753H84.6997V38.7136Z" fill="white"/>
<path d="M84.6997 34.4413H87.4767V30.7029H84.6997V34.4413Z" fill="white"/>
<path d="M23.0708 25.5761H26.9159V21.4105H22.964L23.0708 25.5761Z" fill="white"/>
<path d="M27.8772 25.5761H31.7223V21.4105H27.7704L27.8772 25.5761Z" fill="white"/>
<path d="M23.1776 30.7029H27.0227V26.5374H23.0708L23.1776 30.7029Z" fill="white"/>
<path d="M27.984 30.7029H31.8291V26.5374H27.8772L27.984 30.7029Z" fill="white"/>
<line y1="82.1959" x2="104.411" y2="82.1959" stroke="white" stroke-width="2.2215"/>
</svg>
