<svg width="10" height="10" viewBox="0 0 10 10" fill="none" xmlns="http://www.w3.org/2000/svg">
<path d="M0.418067 8.69287C0.182386 8.92856 0.171163 9.34942 0.423679 9.59632C0.670584 9.84323 1.09144 9.83761 1.32713 9.60193L4.76135 6.1621L8.20118 9.60193C8.44247 9.84323 8.85772 9.84323 9.10462 9.59632C9.34592 9.34381 9.35153 8.93417 9.10462 8.69287L5.6704 5.25304L9.10462 1.81882C9.35153 1.57753 9.35153 1.16228 9.10462 0.915378C8.85211 0.674085 8.44247 0.668474 8.20118 0.909767L4.76135 4.3496L1.32713 0.909767C1.09144 0.674085 0.664972 0.662862 0.423679 0.915378C0.176774 1.16228 0.182386 1.58314 0.418067 1.81882L3.8579 5.25304L0.418067 8.69287Z" fill="black"/>
</svg>
